#N canvas 613 182 769 488 10;
#X obj 48 10 netreceive 9001 1;
#X obj 309 114 print UNIDENTIFIED;
#X msg 92 336 \; scrub-\$1 \$2;
#X obj 387 263 +~;
#X msg 180 266 \; record-\$1 bang;
#X msg 48 371 \; mode-\$1 symbol \$2;
#X obj 310 266 line~ 1;
#X obj 375 312 *~;
#X obj 381 374 dac~ 1;
#X msg 343 196 0 10;
#X msg 251 216 bang;
#X msg 342 165 bang;
#X msg 136 301 \; volume-\$1 \$2;
#X msg 252 244 0.5 10;
#X obj 381 184 sampleunit 1;
#X obj 255 190 delay 2 1 sec;
#X obj 186 148 trigger b b b;
#X msg 162 216 0;
#X obj 184 169 delay 50 1 msec;
#X msg 149 193 set \$1;
#X obj 218 122 s reset;
#X obj 48 74 route mode scrub volume record reset;
#X msg 218 99 bang;
#X obj 274 131 print reset;
#X obj 546 245 sampleunit 0;
#X obj 464 184 sampleunit 2;
#X obj 546 184 sampleunit 3;
#X obj 546 214 sampleunit 4;
#X connect 0 0 21 0;
#X connect 3 0 7 1;
#X connect 6 0 7 0;
#X connect 7 0 8 0;
#X connect 9 0 6 0;
#X connect 10 0 13 0;
#X connect 11 0 9 0;
#X connect 13 0 6 0;
#X connect 14 0 3 0;
#X connect 15 0 10 0;
#X connect 16 0 18 0;
#X connect 16 1 15 0;
#X connect 16 2 11 0;
#X connect 17 0 4 0;
#X connect 18 0 17 0;
#X connect 19 0 17 0;
#X connect 21 0 5 0;
#X connect 21 1 2 0;
#X connect 21 2 12 0;
#X connect 21 3 16 0;
#X connect 21 3 19 0;
#X connect 21 4 22 0;
#X connect 21 5 1 0;
#X connect 22 0 20 0;
#X connect 22 0 23 0;
#X connect 24 0 3 0;
#X connect 25 0 3 0;
#X connect 26 0 3 0;
#X connect 27 0 3 0;
