#N canvas 829 53 553 251 10;
#X obj 48 34 netreceive 9001 1;
#X obj 183 104 print UNIDENTIFIED;
#X msg 93 159 \; scrub-\$1 \$2;
#X obj 312 125 +~;
#X obj 312 161 dac~;
#X obj 48 74 route mode scrub record;
#X obj 348 37 sampleunit 2;
#X msg 138 127 \; record-\$1 bang;
#X msg 48 192 \; mode-\$1 symbol \$2;
#X obj 265 37 sampleunit 1;
#X obj 430 37 sampleunit 3;
#X obj 430 67 sampleunit 4;
#X obj 430 98 sampleunit 5;
#X connect 0 0 5 0;
#X connect 3 0 4 0;
#X connect 5 0 8 0;
#X connect 5 1 2 0;
#X connect 5 2 7 0;
#X connect 5 3 1 0;
#X connect 6 0 3 0;
#X connect 9 0 3 0;
#X connect 10 0 3 0;
#X connect 11 0 3 0;
#X connect 12 0 3 0;
