#N canvas 554 341 769 488 10;
#X obj 48 34 netreceive 9001 1;
#X obj 183 104 print UNIDENTIFIED;
#X msg 93 331 \; scrub-\$1 \$2;
#X obj 357 218 +~;
#X obj 48 74 route mode scrub record;
#X msg 138 299 \; record-\$1 bang;
#X msg 48 364 \; mode-\$1 symbol \$2;
#X obj 280 221 line~ 1;
#X obj 345 267 *~;
#X obj 351 329 dac~ 1;
#X obj 430 98 sampleunit 0;
#X obj 348 37 sampleunit 2;
#X obj 265 37 sampleunit 1;
#X obj 430 37 sampleunit 3;
#X obj 430 67 sampleunit 4;
#X msg 249 166 0 10;
#X msg 157 175 bang;
#X obj 206 199 bng 15 250 50 0 empty empty empty 17 7 0 10 -262144
-1 -1;
#X obj 156 148 delay 2 1 sec;
#X msg 158 203 3 10;
#X msg 248 135 bang;
#X connect 0 0 4 0;
#X connect 3 0 8 1;
#X connect 4 0 6 0;
#X connect 4 1 2 0;
#X connect 4 2 5 0;
#X connect 4 2 18 0;
#X connect 4 2 20 0;
#X connect 4 3 1 0;
#X connect 7 0 8 0;
#X connect 8 0 9 0;
#X connect 10 0 3 0;
#X connect 11 0 3 0;
#X connect 12 0 3 0;
#X connect 13 0 3 0;
#X connect 14 0 3 0;
#X connect 15 0 7 0;
#X connect 16 0 19 0;
#X connect 16 0 17 0;
#X connect 18 0 16 0;
#X connect 19 0 7 0;
#X connect 20 0 15 0;
